<svg style="height: 512px; width: 512px;" xmlns="http://www.w3.org/2000/svg" viewBox="0 0 512 512"><path d="M0 0h512v512H0z" fill="#000" fill-opacity="1"></path><g class="" style="" transform="translate(0,0)"><g><path d="M260.28 71.406C247.787 71.586 237.004 78.436 224.97 87.719C160.78 137.22 81.93 205.86 59.874 254C51.58 242.99 22.686 245.422 22.686 260.656C22.686 273.726 42.791 277.343 54.28 271.75C53.665 276.084 53.76 280.13 54.625 283.875C48.258 285.758 43.345 289.87 43.345 296.155C43.345 309.917 65.635 313.23 76.688 306.313C81.718 309.079 86.996 311.696 92.5 314.125C91.68 315.637 91.25 317.362 91.25 319.281C91.25 330.897 107.118 335.047 118.72 331.907C118.574 332.617 118.5 333.379 118.5 334.157C118.5 352.451 157.906 352.287 157.906 334.157C157.906 334.01 157.88 333.864 157.876 333.72C172.151 336.454 186.991 338.498 202.156 339.875C205.159 354.195 234.813 354.785 240.406 341.938C255.438 342.228 270.569 341.938 285.562 341.063C285.426 341.756 285.312 342.493 285.312 343.25C285.312 357.42 308.965 360.502 319.625 352.75C331.335 370.13 375.625 366.85 375.625 343.375C375.625 341.071 375.218 338.967 374.437 337.062C384.002 341.566 397.007 342.287 407.687 339.219C410.125 355.727 446.969 354.967 446.969 337.436C446.969 328.006 436.326 323.609 426.093 324.03C426.67 322.235 426.999 320.298 426.999 318.22C426.999 316.37 426.739 314.65 426.279 313.03C431.362 311.036 436.257 308.93 440.937 306.75C453.177 301.045 458.527 291.822 458.624 280.187C470.157 285.557 489.937 281.753 489.937 268.907C489.937 254.45 464.873 251.739 454.717 260.25C436.167 208.61 355.475 131.296 293.937 85.062C280.76 75.162 269.997 71.266 260.28 71.406Z" class="" fill="#b57204" fill-opacity="1"></path><path d="M479.314 302.5C469.46 302.543 459.594 307.077 459.594 315.97C459.594 334.263 499.001 334.1 499.001 315.97C499.001 306.904 489.167 302.457 479.313 302.5Z" class="selected" fill="#f5bf23" fill-opacity="1"></path><path d="M34.97 314.063C25.116 314.106 15.25 318.639 15.25 327.531C15.25 345.827 54.656 345.661 54.656 327.531C54.656 318.467 44.822 314.021 34.969 314.064Z" class="" fill="#f5bf23" fill-opacity="1"></path><path d="M80.374 342.5C69.664 342.547 58.944 347.317 58.218 356.656C47.808 356.126 36.718 360.634 36.718 370.062C36.718 387.404 72.122 388.16 75.811 372.75C88.196 374.34 102.561 369.305 102.561 357.687C102.561 347.483 91.465 342.451 80.373 342.5Z" class="" fill="#f5bf23" fill-opacity="1"></path><path d="M169.594 352.906C162.937 352.936 156.274 355.006 152.654 359.094C139.162 356.254 121.78 361.369 121.78 374.188C121.78 393.605 159.467 395.363 166.937 379.906C177.591 380.778 189.281 376.256 189.281 366.376C189.281 357.31 179.448 352.863 169.595 352.906Z" class="" fill="#f5bf23" fill-opacity="1"></path><path d="M258.78 354.531C248.928 354.575 239.063 359.109 239.063 368.001C239.063 386.295 278.5 386.131 278.5 368.001C278.5 358.936 268.634 354.489 258.78 354.531Z" class="" fill="#f5bf23" fill-opacity="1"></path><path d="M469.406 360.595C456.456 360.651 443.5 366.625 443.5 378.315C443.5 402.358 495.28 402.141 495.28 378.313C495.28 366.4 482.357 360.538 469.406 360.595Z" class="" fill="#f5bf23" fill-opacity="1"></path><path d="M394.219 367.72C384.365 367.762 374.499 372.295 374.499 381.187C374.499 399.482 413.937 399.317 413.937 381.187C413.937 372.123 404.071 367.677 394.217 367.719Z" class="" fill="#f5bf23" fill-opacity="1"></path><path d="M212.936 381.47C201.638 381.518 190.343 386.71 190.343 396.906C190.343 409.393 206.349 414.361 219.313 411.969C226.157 430.673 270.218 428.789 270.218 406.811C270.218 391.593 249.111 386.294 233.842 390.531C230.284 384.426 221.614 381.431 212.936 381.468Z" class="" fill="#f5bf23" fill-opacity="1"></path><path d="M334.78 388.406C328.57 388.433 322.337 390.248 318.594 393.812C306.997 388.872 287.814 392.77 287.814 405.187C287.812 420.085 313.951 422.724 323.656 413.407C335.253 418.431 354.469 414.533 354.469 401.875C354.469 392.81 344.633 388.363 334.779 388.405Z" class="" fill="#f5bf23" fill-opacity="1"></path><path d="M94.44 390.97C83.14 391.018 71.814 396.21 71.814 406.406C71.814 427.384 117.034 427.196 117.034 406.406C117.034 396.012 105.738 390.919 94.44 390.969Z" class="" fill="#f5bf23" fill-opacity="1"></path><path d="M429.5 404.81C418.408 404.86 407.312 409.956 407.312 419.967C407.312 440.561 451.687 440.377 451.687 419.967C451.687 409.761 440.592 404.761 429.5 404.809Z" class="" fill="#f5bf23" fill-opacity="1"></path><path d="M158.844 406.654C147.544 406.704 136.25 411.894 136.25 422.092C136.25 443.07 181.438 442.882 181.438 422.092C181.438 411.697 170.142 406.605 158.844 406.654Z" class="" fill="#f5bf23" fill-opacity="1"></path></g></g></svg>