<svg style="height: 512px; width: 512px;" xmlns="http://www.w3.org/2000/svg" viewBox="0 0 512 512"><path d="M0 0h512v512H0z" fill="#000" fill-opacity="1"></path><g class="" style="" transform="translate(0,0)"><g><path d="M72.156 21.906C52.646 21.81 37.969 32.263 28.686 48.376C13.838 74.154 18.424 104.73 58.531 127.936C84.885 143.186 120.058 151.476 145.281 148.062L133.907 167.782L149.157 176.594L198.845 90.344L183.595 81.531L173.095 99.751C163.435 76.148 138.701 49.783 112.345 34.531C97.305 25.828 83.863 21.965 72.157 21.907Z" class="" fill="#4a4a4a" fill-opacity="1"></path><path d="M206.531 114.436L197.188 130.656L368.938 230.031L312.688 230.031L183.126 155.031L173.782 171.221L382.53 292L385.906 293.97L389.656 292.937C393.361 291.923 400.639 292.547 408 294.781C415.36 297.018 422.843 300.559 427.656 303.345L429.844 304.595L430.564 304.595C430.788 304.677 431.022 304.74 431.25 304.815C430.87 306.208 430.656 307.673 430.656 309.188C430.656 318.353 438.086 325.782 447.25 325.782C456.415 325.782 463.844 318.354 463.844 309.19C463.844 302.693 460.094 297.1 454.656 294.377C456.529 290.737 457.506 286.522 456.812 281.971C456.042 276.904 452.639 271.651 447.625 268.751C436.915 262.553 422.211 251.309 419.655 241.063L418.688 237.22L415.25 235.25L206.53 114.437Z" class="" fill="#ffffff" fill-opacity="1"></path><path d="M449.471 349.906C430.811 419.54 404.876 409.896 404.876 450.656C404.876 475.273 424.856 495.219 449.47 495.219C474.083 495.219 494.062 475.272 494.062 450.655C494.062 406.653 468.46 420.78 449.469 349.905Z" class="selected" fill="#e5c48e" fill-opacity="1"></path></g></g></svg>