<svg style="height: 512px; width: 512px;" xmlns="http://www.w3.org/2000/svg" viewBox="0 0 512 512"><path d="M0 0h512v512H0z" fill="#000" fill-opacity="1"></path><g class="" style="" transform="translate(0,0)"><g><path d="M182.9 50.88C175.9 50.98 169.9 51.54 165.5 52.53C158.3 54.08 156.5 56.34 156.3 56.71C156.2 57.08 156.1 59.89 160.6 65.27C165.1 70.6 173.3 77.31 184.2 84.24C192.2 89.31 201.6 94.54 212.3 99.73C223.9 79.25 307.4 85.14 343.4 90.11C329 83.9 313.2 77.89 296.3 72.42C258.7 60.22 223.1 53.06 196.8 51.31C191.8 50.97 187.2 50.84 182.9 50.88Z" class="" fill="#8b572a" fill-opacity="1"></path><path d="M153.9 84.43L151.7 108.8C157.4 110.8 163.1 113.3 168.6 116.1L177.2 120.6L149.6 165.5L143.9 164.8C143.9 164.8 128.7 163 112.2 163.7C94.49 185.4 86.26 201.7 83.45 226.9C94.46 239.6 103.5 247.7 114.8 257.1L108.9 323.2C100.9 320.5 92.04 317.4 85.24 314C85.7 318.3 86.19 322.6 86.72 326.8C91.72 366.4 98.25 396.1 99.4 401.2C150.7 431.8 208.2 450.6 270.2 461.1C274.4 457.9 299 439.2 328.2 411.6C360 381.7 393.9 342.9 403.2 313.4C407.4 299.9 404.9 273.7 400.3 251.9C395.7 230.1 389.8 212.4 389.8 212.4L388.8 209.5L399.3 179.8C393.9 172.4 385.8 167.3 379.3 164.2L373.9 163.9C345.3 162 308.6 154.5 269.8 141.9C231 129.3 197.3 114 173.7 99.03C166 94.14 159.4 89.3 153.9 84.43Z" class="" fill="#8b572a" fill-opacity="1"></path><path d="M379.9 108.3C374.1 108.3 368.2 108.8 362.3 109.6C345 112.3 328.6 118.9 315.7 129.4C324.4 130.6 335.2 132.3 346.7 134.9C359.7 137.8 373.3 141.8 385.3 147.2C397.3 152.6 408.1 159.5 414.2 170C423.9 186.6 438.5 208.6 450.8 220C457 225.6 462.3 227.8 463.9 227.7C464.7 227.6 465.1 227.6 466.2 226.5C467.4 225.3 469.1 222.7 470.6 218.1C483.3 180.8 459.3 136.4 428.4 119.7C414.8 112.3 397.5 108.3 379.9 108.3Z" class="" fill="#4a90e2" fill-opacity="1"></path><path d="M100.6 118.3C93.91 118.4 87.34 119 81.04 120.2C55.83 124.9 35.42 137.6 26.22 156.9C15.1 180.1 19.78 211.5 35.23 239.9C48.64 264.6 69.95 286.3 93.23 297.9L96.22 264.7C76.74 248.3 63.4 233.1 56.79 217.3C49.74 200.5 51.11 182.9 59.74 166.7C64.49 157.8 73.23 153.1 82.25 150.3C91.27 147.4 101.2 146.3 110.5 145.8C124.2 145.1 134.4 145.9 140.3 146.5L151.6 128C136.3 121.6 119.7 118.4 103.8 118.3Z" class="" fill="#8b572a" fill-opacity="1"></path><path d="M466 260.7C465.3 260.7 464.7 260.8 464 260.9C452.6 262.8 446.1 280.7 449.6 300.8C453.1 320.9 465.2 335.5 476.6 333.5C488 331.5 494.4 313.6 490.9 293.6C487.7 274.9 476.9 260.7 466 260.7Z" class="" fill="#4a90e2" fill-opacity="1"></path><path d="M448 354.5C439.3 354.6 433 365.2 433.9 378.1C434.8 391 442.6 401.4 451.3 401.3C460 401.2 466.3 390.7 465.4 377.8C464.5 364.8 456.7 354.4 448 354.5Z" class="selected" fill="#4a90e2" fill-opacity="1"></path></g></g></svg>