<?xml version="1.0" encoding="iso-8859-1"?>
<!-- Generator: Adobe Illustrator 19.0.0, SVG Export Plug-In . SVG Version: 6.00 Build 0)  -->
<svg version="1.1" id="Capa_1" xmlns="http://www.w3.org/2000/svg" xmlns:xlink="http://www.w3.org/1999/xlink" x="0px" y="0px"
	 viewBox="0 0 512 512" style="enable-background:new 0 0 512 512;" xml:space="preserve">
	<path d="M0 0h512v512H0z" fill="#000" fill-opacity="1"></path>
<g>
	<g>
		<path fill="#9b9b9b" d="M428.059,113.778h-51.991c-3.046-13.56-14.685-23.908-28.881-24.99c-1.265-16.565-15.151-29.658-32.039-29.658
			c-2.456,0-4.916,0.286-7.311,0.851c-4.032,0.949-6.53,4.988-5.58,9.02c0.95,4.032,4.994,6.532,9.02,5.58
			c1.27-0.299,2.571-0.45,3.871-0.45c9.447,0,17.133,7.683,17.133,17.125c0,1.296-0.151,2.599-0.451,3.872
			c-0.595,2.527,0.161,5.183,1.997,7.02c1.836,1.836,4.492,2.593,7.019,1.998c1.273-0.299,2.577-0.45,3.876-0.45
			c6.935,0,12.906,4.147,15.601,10.084H151.679c2.694-5.937,8.666-10.084,15.601-10.084c1.299,0,2.603,0.151,3.876,0.45
			c2.524,0.593,5.183-0.162,7.019-1.998c1.836-1.837,2.592-4.492,1.997-7.02c-0.3-1.273-0.451-2.576-0.451-3.872
			c0-9.442,7.686-17.125,17.133-17.125c1.3,0,2.602,0.151,3.871,0.45c2.527,0.597,5.184-0.159,7.021-1.995
			c1.837-1.836,2.594-4.492,1.999-7.021c-0.299-1.274-0.451-2.578-0.451-3.873c0-9.443,7.686-17.126,17.133-17.126
			c1.297,0,2.601,0.152,3.875,0.451c2.528,0.593,5.184-0.162,7.021-1.999c1.836-1.837,2.591-4.493,1.995-7.021
			c-0.299-1.27-0.45-2.571-0.45-3.869C238.866,22.684,246.553,15,256,15s17.134,7.684,17.134,17.127c0,1.298-0.151,2.6-0.45,3.869
			c-0.596,2.528,0.159,5.185,1.995,7.021s4.496,2.593,7.021,1.999c3.762-0.883,7.681-0.457,11.115,1.154
			c0.972,0.456,1.909,1.009,2.785,1.644c3.354,2.431,8.043,1.681,10.474-1.673c2.431-3.354,1.682-8.044-1.673-10.474
			c-1.638-1.187-3.393-2.222-5.217-3.078c-3.535-1.657-7.273-2.64-11.144-2.932C286.775,13.092,272.888,0,256,0
			s-30.775,13.093-32.04,29.659c-15.756,1.201-28.37,13.813-29.573,29.564c-15.756,1.201-28.37,13.813-29.573,29.564
			c-14.196,1.082-25.835,11.431-28.881,24.99H83.941c-6.893,0-12.5,5.607-12.5,12.5v20.21c0,6.893,5.607,12.5,12.5,12.5h5.817
			c6.407,36.678,24.823,70.264,52.663,95.602c7.406,6.74,15.34,12.751,23.689,18.011c0.697,0.632,1.482,1.112,2.317,1.435
			c26.207,15.925,56.398,24.478,87.571,24.478c42.119,0,82.455-15.599,113.578-43.923c27.84-25.338,46.256-58.924,52.663-95.602
			h5.817c6.893,0,12.5-5.607,12.5-12.5v-20.21C440.559,119.386,434.951,113.778,428.059,113.778z M112.09,184.05
			c-0.621-1.646-1.218-3.303-1.782-4.972l3.378,3.377L112.09,184.05z M376.595,182.455l-11.302,11.297l-11.301-11.297l11.301-11.299
			L376.595,182.455z M375.901,160.552l1.563-1.563h22.604l-12.865,12.861L375.901,160.552z M190.021,214.962l11.302,11.298
			l-11.302,11.298L178.72,226.26L190.021,214.962z M168.111,215.654l-11.301-11.297l11.301-11.298l11.301,11.298L168.111,215.654z
			 M200.629,204.357l11.301-11.299l11.302,11.299l-11.302,11.298L200.629,204.357z M233.839,214.962l11.302,11.298l-11.302,11.298
			l-11.301-11.298L233.839,214.962z M244.447,204.357l11.301-11.298l11.301,11.298l-11.301,11.297L244.447,204.357z
			 M255.748,236.864l11.301,11.298l-11.301,11.298l-11.301-11.298L255.748,236.864z M266.356,226.26l11.301-11.298l11.301,11.298
			l-11.301,11.297L266.356,226.26z M288.266,204.357l11.301-11.298l11.301,11.298l-11.301,11.297L288.266,204.357z M321.476,214.962
			l11.301,11.298l-11.301,11.298l-11.302-11.298L321.476,214.962z M332.083,204.357l11.302-11.298l11.301,11.298l-11.301,11.298
			L332.083,204.357z M343.385,171.85l-11.302-11.298l1.563-1.563h19.475l1.564,1.563L343.385,171.85z M332.776,182.455
			l-11.301,11.297l-11.302-11.298l11.302-11.298L332.776,182.455z M299.566,171.85l-11.301-11.298l1.564-1.563h19.474l1.563,1.563
			L299.566,171.85z M288.958,182.454l-11.301,11.298l-11.301-11.298l11.301-11.298L288.958,182.454z M255.748,171.85l-11.302-11.299
			l1.563-1.563h19.475l1.564,1.563L255.748,171.85z M245.141,182.454l-11.302,11.298l-11.302-11.298l11.302-11.298L245.141,182.454z
			 M211.93,171.85l-11.301-11.298l1.564-1.563h19.475l1.563,1.563L211.93,171.85z M201.321,182.454l-11.301,11.298l-11.301-11.297
			l11.301-11.298L201.321,182.454z M168.111,171.85l-11.301-11.298l1.564-1.563h19.475l1.563,1.563L168.111,171.85z
			 M157.504,182.455l-11.301,11.297l-11.302-11.297l11.302-11.299L157.504,182.455z M124.294,171.85l-12.866-12.861h22.604
			l1.563,1.563L124.294,171.85z M126.787,213.162c-3.004-4.644-5.749-9.44-8.229-14.369l5.735-5.733l11.301,11.298L126.787,213.162z
			 M135.665,225.497l10.538-10.535l11.301,11.298l-11.225,11.221C142.521,233.656,138.979,229.655,135.665,225.497z
			 M170.204,257.368c-4.447-2.993-8.754-6.229-12.898-9.701l10.806-10.803l11.302,11.298L170.204,257.368z M198.861,272.525
			c-5.264-2.105-10.41-4.502-15.417-7.184l6.576-6.574l11.302,11.298L198.861,272.525z M200.629,248.162l11.301-11.297
			l11.301,11.297L211.93,259.46L200.629,248.162z M233.839,281.362l-11.301-11.297l11.301-11.298l11.301,11.297L233.839,281.362z
			 M256,283.513c-1.021,0-2.041-0.016-3.061-0.035l2.809-2.808l2.814,2.813C257.709,283.497,256.855,283.513,256,283.513z
			 M277.657,281.363l-11.302-11.299l11.302-11.298l11.301,11.298L277.657,281.363z M288.266,248.162l11.301-11.298l11.301,11.298
			l-11.301,11.298L288.266,248.162z M312.779,272.669l-2.605-2.604l11.302-11.297l6.753,6.751
			C323.211,268.19,318.053,270.575,312.779,272.669z M341.494,257.57l-9.411-9.408l11.302-11.298l11.037,11.034
			C350.268,251.362,345.95,254.586,341.494,257.57z M365.471,237.734l-11.479-11.475l11.301-11.298l10.818,10.815
			C372.787,229.927,369.237,233.918,365.471,237.734z M385.017,213.47l-9.115-9.112l11.301-11.298l6.071,6.069
			C390.783,204.049,388.029,208.836,385.017,213.47z M399.773,184.417l-1.963-1.962l4.133-4.132
			C401.263,180.371,400.539,182.402,399.773,184.417z M86.441,143.988v-15.21h339.117v15.21H86.441z"/>
	</g>
</g>
<g>
	<g>
		<path fill="#9b9b9b" d="M258.854,60.045c-8.914-8.912-23.418-8.912-32.332,0c-2.929,2.928-2.93,7.677-0.001,10.606
			c2.927,2.929,7.676,2.93,10.606,0.001c3.066-3.064,8.055-3.064,11.121,0c1.465,1.465,3.384,2.196,5.303,2.196
			c1.92,0,3.84-0.732,5.304-2.197C261.784,67.721,261.783,62.972,258.854,60.045z"/>
	</g>
</g>
<g>
	<g>
		<path fill="#9b9b9b" d="M306.633,88.785c-8.914-8.911-23.417-8.913-32.332,0c-2.93,2.929-2.93,7.678-0.001,10.606
			c2.929,2.929,7.678,2.93,10.607,0.001c3.067-3.065,8.055-3.063,11.12,0c1.465,1.465,3.384,2.196,5.303,2.196
			s3.84-0.732,5.304-2.197C309.563,96.462,309.563,91.713,306.633,88.785z"/>
	</g>
</g>
<g>
	<g>
		<path fill="#9b9b9b" d="M229.069,93.276c-8.915-8.912-23.418-8.91-32.332,0c-2.93,2.929-2.93,7.678-0.001,10.606
			c2.929,2.929,7.678,2.93,10.607,0.001c3.065-3.063,8.053-3.065,11.12,0c1.465,1.465,3.384,2.196,5.303,2.196
			s3.84-0.732,5.304-2.197C231.999,100.953,231.999,96.204,229.069,93.276z"/>
	</g>
</g>
<g>
	<g>
		<path fill="#9b9b9b" d="M433.97,497h-55.548l-44.271-41.819c-3.011-2.844-7.757-2.711-10.603,0.302c-2.845,3.012-2.709,7.758,0.302,10.603
			L356.578,497H153.441l59.965-60.221c10.543-10.587,24.646-16.418,39.711-16.418c15.066,0,29.171,5.831,39.714,16.419l8.021,7.58
			c3.011,2.842,7.758,2.709,10.602-0.304c2.845-3.011,2.709-7.758-0.303-10.603l-7.773-7.341
			c-13.369-13.383-31.214-20.752-50.26-20.752c-19.083,0-36.961,7.398-50.34,20.834L132.273,497H78.03c-4.143,0-7.5,3.357-7.5,7.5
			s3.357,7.5,7.5,7.5h355.94c4.143,0,7.5-3.357,7.5-7.5S438.112,497,433.97,497z"/>
	</g>
</g>
<g>
	<g>
		<path fill="#9b9b9b" d="M270,431.92c-1.391-1.39-3.33-2.19-5.3-2.19c-1.971-0.001-3.91,0.8-5.301,2.19c-1.399,1.399-2.199,3.33-2.199,5.31
			c0,1.971,0.8,3.9,2.199,5.301c1.391,1.399,3.32,2.199,5.301,2.199c1.979,0,3.909-0.8,5.3-2.199c1.399-1.4,2.2-3.33,2.2-5.301
			C272.2,435.251,271.399,433.32,270,431.92z"/>
	</g>
</g>
<g>
	<g>
		<path fill="#9b9b9b" d="M293.15,450.319c-1.399-1.39-3.33-2.189-5.3-2.189c-1.98,0-3.91,0.8-5.31,2.189c-1.391,1.4-2.19,3.33-2.19,5.311
			c0,1.97,0.8,3.91,2.19,5.3c1.4,1.4,3.33,2.2,5.31,2.2c1.97,0,3.9-0.8,5.3-2.2c1.4-1.4,2.2-3.33,2.2-5.3
			C295.35,453.66,294.55,451.72,293.15,450.319z"/>
	</g>
</g>
<g>
	<g>
		<path fill="#9b9b9b" d="M316.301,464.85c-1.4-1.39-3.33-2.189-5.31-2.189c-1.971-0.001-3.901,0.799-5.301,2.189c-1.4,1.4-2.199,3.33-2.199,5.311
			c0,1.97,0.8,3.899,2.199,5.3c1.4,1.399,3.33,2.2,5.301,2.2c1.979,0,3.909-0.801,5.31-2.2c1.39-1.4,2.19-3.33,2.19-5.3
			C318.491,468.181,317.69,466.251,316.301,464.85z"/>
	</g>
</g>
<g>
	<g>
		<path fill="#9b9b9b" d="M254.569,450.319c-1.399-1.39-3.329-2.189-5.3-2.189c-1.979,0-3.91,0.8-5.309,2.189c-1.391,1.4-2.191,3.33-2.191,5.311
			c0,1.97,0.8,3.91,2.191,5.3c1.399,1.4,3.33,2.2,5.309,2.2c1.971,0,3.9-0.8,5.3-2.2c1.4-1.399,2.2-3.33,2.2-5.3
			C256.769,453.66,255.969,451.72,254.569,450.319z"/>
	</g>
</g>
<g>
	<g>
		<path fill="#9b9b9b" d="M285.98,476.16c-1.4-1.39-3.331-2.2-5.31-2.2c-1.97,0-3.9,0.81-5.3,2.2c-1.4,1.399-2.2,3.33-2.2,5.3
			c0,1.98,0.8,3.91,2.2,5.31c1.399,1.391,3.33,2.2,5.3,2.2c1.98,0,3.91-0.81,5.31-2.2c1.391-1.399,2.19-3.33,2.19-5.31
			C288.17,479.49,287.37,477.56,285.98,476.16z"/>
	</g>
</g>
<g>
	<g>
		<path fill="#9b9b9b" d="M189.281,301.819c-1.4-1.39-3.33-2.189-5.301-2.189c-1.98,0-3.911,0.8-5.31,2.189c-1.39,1.4-2.19,3.33-2.19,5.311
			c0,1.97,0.801,3.9,2.19,5.3c1.399,1.39,3.33,2.2,5.31,2.2c1.971,0,3.9-0.811,5.301-2.2c1.399-1.399,2.199-3.33,2.199-5.3
			C191.48,305.15,190.68,303.22,189.281,301.819z"/>
	</g>
</g>
<g>
	<g>
		<path fill="#9b9b9b" d="M333.331,301.819c-1.4-1.39-3.33-2.189-5.311-2.189c-1.97,0-3.911,0.8-5.3,2.189c-1.39,1.4-2.2,3.33-2.2,5.311
			c0,1.97,0.811,3.9,2.2,5.3c1.39,1.39,3.33,2.2,5.3,2.2c1.98,0,3.91-0.811,5.311-2.2c1.39-1.399,2.189-3.33,2.189-5.3
			C335.52,305.15,334.72,303.22,333.331,301.819z"/>
	</g>
</g>
<g>
	<g>
		<path fill="#9b9b9b" d="M233.6,315.92c-1.399-1.4-3.33-2.2-5.3-2.2c-1.97,0-3.91,0.8-5.31,2.2c-1.391,1.39-2.19,3.33-2.19,5.3
			c0,1.98,0.8,3.91,2.19,5.311c1.399,1.39,3.34,2.189,5.31,2.189c1.97,0,3.9-0.8,5.3-2.189c1.4-1.4,2.2-3.341,2.2-5.311
			C235.8,319.25,235,317.32,233.6,315.92z"/>
	</g>
</g>
<g>
	<g>
		<path fill="#9b9b9b" d="M291.02,315.92c-1.4-1.4-3.33-2.2-5.31-2.2c-1.97,0-3.9,0.8-5.3,2.2c-1.391,1.399-2.2,3.33-2.2,5.3
			c0,1.97,0.81,3.91,2.2,5.311c1.399,1.39,3.33,2.189,5.3,2.189c1.98,0,3.91-0.8,5.31-2.189c1.391-1.4,2.19-3.33,2.19-5.311
			C293.21,319.25,292.41,317.31,291.02,315.92z"/>
	</g>
</g>
<g>
	<g>
		<path fill="#9b9b9b" d="M261.3,341.089c-1.39-1.39-3.33-2.19-5.3-2.19c-1.98,0-3.91,0.801-5.3,2.19c-1.4,1.4-2.2,3.33-2.2,5.31
			c0,1.971,0.8,3.91,2.2,5.301c1.39,1.399,3.33,2.199,5.3,2.199c1.97,0,3.899-0.799,5.3-2.199c1.4-1.4,2.2-3.33,2.2-5.301
			C263.5,344.419,262.7,342.49,261.3,341.089z"/>
	</g>
</g>
<g>
	<g>
		<path fill="#9b9b9b" d="M304.62,351.17c-1.4-1.4-3.33-2.2-5.31-2.2c-1.97,0-3.899,0.8-5.3,2.2c-1.4,1.39-2.2,3.32-2.2,5.3
			c0,1.97,0.8,3.91,2.2,5.3c1.4,1.4,3.33,2.2,5.3,2.2c1.98,0,3.91-0.8,5.31-2.2c1.39-1.39,2.19-3.33,2.19-5.3
			C306.81,354.491,306.01,352.56,304.62,351.17z"/>
	</g>
</g>
<g>
	<g>
		<path fill="#9b9b9b" d="M252.241,380.37c-1.4-1.4-3.33-2.2-5.311-2.2c-1.97,0-3.91,0.8-5.3,2.2c-1.4,1.39-2.2,3.319-2.2,5.3
			c0,1.98,0.8,3.91,2.2,5.3c1.4,1.4,3.33,2.2,5.3,2.2c1.98,0,3.91-0.8,5.311-2.2c1.39-1.39,2.189-3.32,2.189-5.3
			C254.43,383.7,253.63,381.76,252.241,380.37z"/>
	</g>
</g>
<g>
	<g>
		<path fill="#9b9b9b" d="M208.92,356.2c-1.39-1.4-3.32-2.2-5.3-2.2s-3.91,0.8-5.301,2.2c-1.399,1.399-2.199,3.33-2.199,5.31
			c0,1.97,0.8,3.9,2.199,5.3c1.391,1.391,3.33,2.19,5.301,2.19c1.97,0,3.91-0.8,5.3-2.19c1.399-1.399,2.2-3.33,2.2-5.3
			C211.12,359.531,210.319,357.6,208.92,356.2z"/>
	</g>
</g>
</svg>
