<svg style="height: 512px; width: 512px;" xmlns="http://www.w3.org/2000/svg" viewBox="0 0 512 512"><path d="M0 0h512v512H0z" fill="#000" fill-opacity="1"></path><g class="" style="" transform="translate(0,0)"><g><path d="M105 41L105 137L135 137L135 41Z" class="" fill="#9b9b9b" fill-opacity="1"></path><path d="M377 41L377 139L407 139L407 41Z" class="" fill="#9b9b9b" fill-opacity="1"></path><path d="M25 57L25 87L87 87L87 57Z" class="" fill="#6b3401" fill-opacity="1"></path><path d="M153 57L153 87L359 87L359 57Z" class="" fill="#6b3401" fill-opacity="1"></path><path d="M425 57L425 87L487 87L487 57Z" class="" fill="#6b3401" fill-opacity="1"></path><path d="M69 137L69 236L125.8 250.2L69 265.7L69 391.8C83.39 388.3 98.01 390.1 111.7 395.2C129.6 401.7 146.6 413.2 163.3 425.3C196.7 449.6 229.2 475.6 256 475.6C282.8 475.6 315.3 449.6 348.7 425.3C365.4 413.2 382.4 401.7 400.3 395.2C414 390.1 428.6 388.3 443 391.8L443 349.2L427.6 338.5L399.4 318.9L443 323L443 220.4L397.3 205.9L443 196.4L443 137L425 137L425 157L359 157L359 137L153 137L153 155L87 155L87 137Z" class="selected" fill="#674930" fill-opacity="1"></path><path d="M253.3 167L253.6 167C268.5 167.5 276.4 178.9 280.1 182.5C282 184.4 281.9 184.1 282.2 184.1C287.7 181.6 289 180.4 293.5 176.4L296.9 176.4C306.9 176.4 315.7 181.7 321.6 189.2C327.5 196.7 330.8 206.6 330.8 217.3C330.8 221.2 330.4 224.9 329.5 228.5C333.6 227 337.6 225.8 341.7 225.6C343.2 225.4 344.6 225.5 346 225.7C351.9 226.3 358.7 230.9 360.6 237.4C370.9 271.6 368.3 308.8 360.7 338.2C358 348.8 350.1 355.8 342.1 358.5C337.6 360 333.2 360.6 329 360.9C328.8 362.9 329 393.5 329 411L183 411C182.9 393.1 183 376.3 183 359C186.5 328.7 191.9 287.4 195.6 254.5C182.5 248.3 173.3 235.7 173.3 220.8C173.3 199.6 192 183 213.9 183C218 183 222.1 183.6 225.9 184.8C232.2 174.3 241.8 167 253.3 167Z" class="" fill="#ffffff" fill-opacity="1"></path><path d="M253.2 185C248.5 185.1 242.5 189.3 238.7 199.4L235.1 209.1L226 204.1C222.4 202.1 218.1 201 213.9 201C200.8 201 191.3 210.2 191.3 220.8C191.3 231.4 200.8 240.6 213.9 240.6C219.3 240.6 224.5 238.9 228.4 236L236.3 230.1L241.5 238.5C245.3 244.8 249.6 247 253.3 247C258 247 264.1 242.7 268 232.4L274.9 213.9L284.3 231.2C287.8 237.5 292.4 240.2 296.9 240.2C300.6 240.2 304.2 238.3 307.4 234.3C310.5 230.3 312.8 224.2 312.8 217.3C312.8 210.4 310.5 204.3 307.4 200.3C305 197.3 302.4 195.5 299.6 194.7C294 199.1 288.8 201.8 283.1 202.1C276.4 202.4 270.9 198.6 267.6 195.5C261.2 189.3 259.5 185.3 253.2 185Z" class="" fill="#ffffff" fill-opacity="1"></path><path d="M343.6 243.6C333.7 244.8 323.9 251.1 316.7 256.8L326.3 342.9C330.2 342.7 333.8 342.3 336.3 341.4C340.2 340.1 341.9 339.1 343.3 333.8C350.1 307.3 352.2 273.2 343.6 243.6Z" class="" fill="#8b572a" fill-opacity="1"></path><path d="M278 251.2C271.8 259.5 263.3 265 253.3 265C244.9 265 237.3 261.1 231.4 254.8C225.9 257.3 219.9 258.6 213.9 258.6L213.3 258.6L202.1 359L309.9 359L298.7 258.1C298.1 258.2 297.5 258.2 296.9 258.2C289.9 258.2 283.4 255.6 278 251.2Z" class="" fill="#f8e71c" fill-opacity="1"></path><path d="M201 377L201 393L311 393L311 377Z" class="" fill="#f8e71c" fill-opacity="1"></path></g></g></svg>